Coordinates
version=1
nRows=10
nColumns=34
inDegrees=yes

Units are S.I. units (second, meters, Newtons, ...)
If the header above contains a line with 'inDegrees', this indicates whether rotational values are in degrees (yes) or radians (no).

endheader
time	pelvis_tilt	pelvis_list	pelvis_rotation	pelvis_tx	pelvis_ty	pelvis_tz	hip_flexion_r	hip_adduction_r	hip_rotation_r	knee_angle_r	ankle_angle_r	subtalar_angle_r	mtp_angle_r	hip_flexion_l	hip_adduction_l	hip_rotation_l	knee_angle_l	ankle_angle_l	subtalar_angle_l	mtp_angle_l	lumbar_extension	lumbar_bending	lumbar_rotation	arm_flex_r	arm_add_r	arm_rot_r	elbow_flex_r	pro_sup_r	arm_flex_l	arm_add_l	arm_rot_l	elbow_flex_l	pro_sup_l
      5.96666670	      6.95622002	    -13.11427742	    -28.35196551	      3.77776317	      1.02981439	      1.34909275	      6.00850814	      1.88204541	    -11.25045542	     25.91751185	      9.58711273	      0.40909044	      0.00000000	      3.05756437	     -1.94218640	      3.74338800	     15.08645677	     12.60135132	     -0.00715091	      0.00000000	     -7.69043952	      7.12541922	      1.77545463	     -0.48536113	    -21.13837464	     22.14102635	    100.57615940	    119.74817918	      1.62742582	    -15.76159561	     18.16779135	    101.69653693	    119.74817918
      5.98333330	      6.91448349	    -12.86200906	    -28.23868718	      3.77908969	      1.02974741	      1.34875262	      6.17916393	      1.74391770	    -10.67595542	     25.99486323	      9.46560800	     -0.17873355	      0.00000000	      2.54880281	     -1.74402597	      4.64179865	     13.61906662	     12.04518099	      0.98901268	      0.00000000	     -7.60768026	      7.11967500	      1.73905550	     -0.77367402	    -22.06909759	     22.96917225	    100.92464431	    119.74817918	      2.24497958	    -15.59612449	     18.15408401	    101.80612822	    119.74817918
      6.00000000	      7.00779820	    -12.68962081	    -28.01490804	      3.77919409	      1.02953648	      1.34770700	      6.32964371	      1.61530042	    -10.16064112	     26.22047306	      9.35541848	     -0.95684097	      0.00000000	      2.29139336	     -1.52923251	      5.11485907	     12.68532131	     11.13680329	      1.66136024	      0.00000000	     -7.92834197	      7.04040931	      1.66642056	     -0.55534333	    -22.77892302	     23.97538879	    100.85868461	    119.74817918	      3.25611780	    -15.69210828	     18.63595948	    102.08760131	    119.74817918
      6.01666670	      7.14828843	    -12.48483313	    -27.74344591	      3.77923815	      1.02939144	      1.34645360	      6.45630963	      1.39658133	     -9.74575044	     26.44408435	      9.25159045	     -1.68320080	      0.00000000	      2.35661468	     -1.26465652	      5.39040111	     12.30814357	      9.77948131	      2.21109250	      0.00000000	     -8.35955491	      6.94441752	      1.65204768	     -0.16489216	    -23.43069381	     24.99556090	    100.53461832	    119.74817918	      4.28311904	    -15.60230629	     18.87894140	    101.95845115	    119.74817918
      6.03333330	      7.28293358	    -12.19627270	    -27.44332024	      3.77892301	      1.02926898	      1.34509239	      6.67242183	      1.10910819	     -9.31975640	     26.70948200	      9.06573093	     -2.43441321	      0.00000000	      2.75090491	     -0.91200400	      5.72113572	     12.40833642	      7.94388914	      2.64448317	      0.00000000	     -8.87707718	      6.75963440	      1.68554874	      0.33571499	    -23.98072720	     25.85926807	    100.19184099	    119.74817918	      5.30214809	    -15.48359191	     18.92929227	    101.77561874	    119.74817918
      6.05000000	      7.35817738	    -11.48654478	    -27.19459509	      3.77868271	      1.02876111	      1.34421152	      7.28403305	      0.47831500	     -8.85297698	     27.22275913	      8.63811146	     -3.99062501	      0.00000000	      3.44223469	     -0.10319984	      5.79027800	     12.59670011	      5.91021506	      2.07398524	      0.00000000	     -9.16897464	      6.05987884	      1.49241031	      1.14296254	    -24.28416127	     26.93489486	     99.75511731	    119.74817918	      6.17606605	    -15.49969996	     19.10184814	    102.13584514	    119.74817918
      6.06666670	      7.36045319	    -10.85057964	    -26.99712183	      3.77780818	      1.02848052	      1.34316147	      7.88379506	     -0.03222095	     -8.30140753	     27.59051489	      8.38059547	     -4.98693238	      0.00000000	      4.31599569	      0.58494650	      5.76439228	     13.03703350	      3.83328224	      1.38405021	      0.00000000	     -9.43037616	      5.48319661	      1.34004944	      1.77814731	    -24.29741496	     27.26126332	     99.44220195	    119.74817918	      7.16052243	    -15.42905808	     18.97779335	    102.10474092	    119.74817918
      6.08333330	      7.44097276	    -10.46572036	    -26.73321005	      3.77783301	      1.02880964	      1.34232351	      8.01486393	     -0.34292234	     -7.82163127	     27.61046437	      8.39138163	     -5.33952361	      0.00000000	      4.93348942	      1.05983233	      5.56555428	     13.61333417	      2.47707167	      1.21863414	      0.00000000	     -9.71034606	      5.20894650	      1.16087967	      2.32953968	    -24.22478019	     27.25546374	     99.45002665	    119.74817918	      7.98594276	    -15.50299994	     19.09341456	    102.12299303	    119.74817918
      6.10000000	      7.28896955	     -9.08899962	    -26.94303590	      3.77746036	      1.02818035	      1.34178957	      9.30468657	     -1.44306144	     -6.69047954	     28.31297955	      8.13377405	     -7.06985233	      0.00000000	      5.99886907	      2.49799817	      5.01988081	     13.66366917	      1.08022197	     -0.89200262	      0.00000000	     -9.19840825	      3.96100137	      1.20768253	      2.85201607	    -23.76435765	     27.21053797	     98.99219985	    119.74817918	      8.66447125	    -15.92766936	     19.57144358	    102.09695714	    119.74817918
      6.11666670	      7.68762874	     -8.65138760	    -26.65577768	      3.77852957	      1.02957351	      1.34151027	      9.02788814	     -2.04719829	     -6.65275213	     28.25325439	      7.85925887	     -7.29757504	      0.00000000	      6.28420333	      3.21898660	      4.16586354	     14.39262147	      1.37759985	     -1.75990037	      0.00000000	     -9.43479729	      3.46584641	      0.77611160	      3.15393961	    -23.24428224	     26.93057412	     98.78271501	    119.74817918	      8.90270775	    -16.19396605	     19.63777321	    101.80409597	    119.74817918
